<?xml version="1.0" encoding="iso-8859-1"?>
<!-- Generator: Adobe Illustrator 19.0.0, SVG Export Plug-In . SVG Version: 6.00 Build 0)  -->
<svg xmlns="http://www.w3.org/2000/svg" xmlns:xlink="http://www.w3.org/1999/xlink" version="1.1" id="Capa_1" x="0px" y="0px" viewBox="0 0 512 512" style="enable-background:new 0 0 512 512;" xml:space="preserve" width="512px" height="512px">
<g>
	<g>
		<g>
			<path d="M10.667,384.003c17.813,0,26.208,4.385,35.927,9.458c10.667,5.563,22.76,11.875,45.813,11.875     c23.042,0,35.125-6.313,45.792-11.875c9.719-5.073,18.104-9.458,35.917-9.458s26.208,4.385,35.927,9.458     c10.667,5.563,22.75,11.875,45.792,11.875c23.052,0,35.146-6.313,45.813-11.875c9.719-5.073,18.115-9.458,35.938-9.458     c17.854,0,26.271,4.385,36.01,9.458c10.677,5.563,22.781,11.875,45.865,11.875c23.083,0,35.188-6.313,45.865-11.875     c9.74-5.073,18.156-9.458,36.01-9.458c5.896,0,10.667-4.771,10.667-10.667c0-5.896-4.771-10.667-10.667-10.667     c-23.083,0-35.188,6.313-45.865,11.875c-2.512,1.309-4.948,2.56-7.469,3.714V234.669h32c4.469,0,8.458-2.781,10-6.969     c1.552-4.188,0.333-8.896-3.063-11.792l-224-192c-3.979-3.438-9.896-3.438-13.875,0l-224,192     c-3.396,2.896-4.615,7.604-3.063,11.792c1.542,4.188,5.531,6.969,10,6.969h32v143.619c-2.542-1.163-5-2.422-7.531-3.743     c-10.667-5.563-22.75-11.875-45.802-11.875C4.771,362.669,0,367.44,0,373.336C0,379.232,4.771,384.003,10.667,384.003z      M170.667,266.669c0-5.896,4.771-10.667,10.667-10.667h149.333c5.896,0,10.667,4.771,10.667,10.667v96.262     c-1.326-0.046-2.345-0.262-3.75-0.262c-23.052,0-35.146,6.313-45.813,11.875c-9.719,5.073-18.115,9.458-35.938,9.458     c-17.813,0-26.198-4.385-35.917-9.458c-10.667-5.563-22.75-11.875-45.802-11.875c-1.292,0-2.224,0.202-3.448,0.241V266.669z" fill="#999999"/>
			<path d="M501.333,448.003c-23.083,0-35.188,6.313-45.865,11.875c-9.74,5.073-18.156,9.458-36.01,9.458     c-17.854,0-26.271-4.385-36.01-9.458c-10.677-5.563-22.781-11.875-45.865-11.875c-23.052,0-35.146,6.313-45.813,11.875     c-9.719,5.073-18.115,9.458-35.938,9.458c-17.813,0-26.198-4.385-35.917-9.458c-10.667-5.563-22.75-11.875-45.802-11.875     c-23.042,0-35.125,6.313-45.792,11.875c-9.719,5.073-18.104,9.458-35.917,9.458c-17.823,0-26.219-4.385-35.938-9.458     c-10.667-5.563-22.75-11.875-45.802-11.875C4.771,448.003,0,452.773,0,458.669c0,5.896,4.771,10.667,10.667,10.667     c17.813,0,26.208,4.385,35.927,9.458c10.667,5.563,22.76,11.875,45.813,11.875c23.042,0,35.125-6.313,45.792-11.875     c9.719-5.073,18.104-9.458,35.917-9.458s26.208,4.385,35.927,9.458c10.667,5.563,22.75,11.875,45.792,11.875     c23.052,0,35.146-6.313,45.813-11.875c9.719-5.073,18.115-9.458,35.938-9.458c17.854,0,26.271,4.385,36.01,9.458     c10.677,5.563,22.781,11.875,45.865,11.875c23.083,0,35.188-6.313,45.865-11.875c9.74-5.073,18.156-9.458,36.01-9.458     c5.896,0,10.667-4.771,10.667-10.667C512,452.773,507.229,448.003,501.333,448.003z" fill="#999999"/>
		</g>
	</g>
</g>
<g>
</g>
<g>
</g>
<g>
</g>
<g>
</g>
<g>
</g>
<g>
</g>
<g>
</g>
<g>
</g>
<g>
</g>
<g>
</g>
<g>
</g>
<g>
</g>
<g>
</g>
<g>
</g>
<g>
</g>
</svg>
